# Blender v2.81 (sub 16) OBJ File: ''
# www.blender.org
mtllib uvsphere.mtl
o Icosphere
v 0.000000 -0.500000 -0.000000
v 0.212662 -0.425327 0.154505
v -0.081228 -0.425327 0.249997
v 0.361804 -0.223610 0.262862
v 0.425324 -0.262868 -0.000000
v -0.262865 -0.425326 -0.000000
v -0.081228 -0.425327 -0.249998
v 0.212662 -0.425327 -0.154506
v 0.475529 -0.000000 0.154507
v -0.138194 -0.223610 0.425324
v 0.131435 -0.262869 0.404506
v 0.000000 -0.000000 0.500000
v -0.447213 -0.223608 -0.000000
v -0.344095 -0.262868 0.249998
v -0.475529 -0.000000 0.154507
v -0.138194 -0.223610 -0.425325
v -0.344095 -0.262868 -0.249999
v -0.293893 0.000000 -0.404509
v 0.361804 -0.223610 -0.262863
v 0.131435 -0.262869 -0.404506
v 0.293893 0.000000 -0.404509
v 0.293893 -0.000000 0.404509
v -0.293893 -0.000000 0.404509
v -0.475529 0.000000 -0.154507
v 0.000000 0.000000 -0.500000
v 0.475529 0.000000 -0.154507
v 0.138194 0.223610 0.425325
v 0.344095 0.262868 0.249999
v 0.081228 0.425327 0.249998
v -0.361804 0.223610 0.262863
v -0.131435 0.262869 0.404506
v -0.212662 0.425327 0.154506
v -0.361804 0.223610 -0.262862
v -0.425324 0.262868 0.000000
v -0.212662 0.425327 -0.154505
v 0.138194 0.223610 -0.425324
v -0.131435 0.262869 -0.404506
v 0.081228 0.425327 -0.249997
v 0.447213 0.223608 0.000000
v 0.344095 0.262868 -0.249998
v 0.262865 0.425326 0.000000
v 0.000000 0.500000 0.000000
vt 0.378986 0.289990
vt 0.474944 0.311319
vt 0.393696 0.387183
vt 0.588154 0.388308
vt 0.532497 0.313143
vt 0.643811 0.313144
vt 0.338192 0.306215
vt 0.282687 0.387183
vt 0.297398 0.289989
vt 0.201440 0.311317
vt 0.242901 0.208178
vt 0.676289 0.419616
vt 0.424959 0.475195
vt 0.500021 0.419614
vt 0.500021 0.530778
vt 0.251424 0.475195
vt 0.338191 0.475195
vt 0.282686 0.563208
vt 0.088229 0.388306
vt 0.176362 0.419614
vt 0.088228 0.475195
vt 0.878913 0.289989
vt 0.974872 0.311319
vt 0.893622 0.387185
vt 0.588154 0.475197
vt 0.393695 0.563209
vt 0.176362 0.530776
vt 0.000095 0.419613
vt 0.838117 0.306215
vt 0.782613 0.387185
vt 0.588155 0.562085
vt 0.676288 0.530778
vt 0.643812 0.637250
vt 0.378985 0.660405
vt 0.474944 0.639075
vt 0.433484 0.742215
vt 0.088227 0.562083
vt 0.143883 0.637248
vt 0.032569 0.637248
vt 0.924886 0.475199
vt 0.999947 0.530780
vt 0.893622 0.563211
vt 0.751350 0.475197
vt 0.838118 0.475198
vt 0.782613 0.563210
vt 0.838117 0.644178
vt 0.974870 0.639076
vt 0.878911 0.660404
vt 0.000094 0.530776
vt 0.933409 0.742214
vt 0.088225 0.733648
vt 0.201436 0.639074
vt 0.297394 0.660404
vt 0.242895 0.742214
vt 0.742825 0.742214
vt 0.701365 0.639075
vt 0.797323 0.660404
vt 0.588156 0.733651
vt 0.532498 0.637251
vt 0.999948 0.419617
vt 0.032573 0.313140
vt 0.338189 0.644178
vt 0.701364 0.311318
vt 0.797322 0.289989
vt 0.933413 0.208178
vt 0.088232 0.216740
vt 0.143887 0.313141
vt 0.742823 0.208178
vt 0.588153 0.216744
vt 0.433485 0.208180
vn 0.1024 -0.9435 0.3151
vn 0.7002 -0.6617 0.2680
vn -0.2680 -0.9435 0.1947
vn -0.2680 -0.9435 -0.1947
vn 0.1024 -0.9435 -0.3151
vn 0.9050 -0.3304 0.2680
vn 0.0247 -0.3304 0.9435
vn -0.8897 -0.3304 0.3151
vn -0.5746 -0.3304 -0.7488
vn 0.5346 -0.3304 -0.7779
vn 0.8026 -0.1256 0.5831
vn -0.3066 -0.1256 0.9435
vn -0.9921 -0.1256 -0.0000
vn -0.3066 -0.1256 -0.9435
vn 0.8026 -0.1256 -0.5831
vn 0.4089 0.6617 0.6284
vn -0.4713 0.6617 0.5831
vn -0.7002 0.6617 -0.2680
vn 0.0385 0.6617 -0.7488
vn 0.7240 0.6617 -0.1947
vn 0.2680 0.9435 -0.1947
vn 0.4911 0.7947 -0.3568
vn 0.4089 0.6617 -0.6284
vn -0.1024 0.9435 -0.3151
vn -0.1876 0.7947 -0.5773
vn -0.4713 0.6617 -0.5831
vn -0.3313 0.9435 0.0000
vn -0.6071 0.7947 0.0000
vn -0.7002 0.6617 0.2680
vn -0.1024 0.9435 0.3151
vn -0.1876 0.7947 0.5773
vn 0.0385 0.6617 0.7488
vn 0.2680 0.9435 0.1947
vn 0.4911 0.7947 0.3568
vn 0.7240 0.6617 0.1947
vn 0.8897 0.3304 -0.3151
vn 0.7947 0.1876 -0.5773
vn 0.5746 0.3304 -0.7488
vn -0.0247 0.3304 -0.9435
vn -0.3035 0.1876 -0.9342
vn -0.5346 0.3304 -0.7779
vn -0.9050 0.3304 -0.2680
vn -0.9822 0.1876 0.0000
vn -0.9050 0.3304 0.2680
vn -0.5346 0.3304 0.7779
vn -0.3035 0.1876 0.9342
vn -0.0247 0.3304 0.9435
vn 0.5746 0.3304 0.7488
vn 0.7947 0.1876 0.5773
vn 0.8897 0.3304 0.3151
vn 0.3066 0.1256 -0.9435
vn 0.3035 -0.1876 -0.9342
vn 0.0247 -0.3304 -0.9435
vn -0.8026 0.1256 -0.5831
vn -0.7947 -0.1876 -0.5773
vn -0.8897 -0.3304 -0.3151
vn -0.8026 0.1256 0.5831
vn -0.7947 -0.1876 0.5773
vn -0.5746 -0.3304 0.7488
vn 0.3066 0.1256 0.9435
vn 0.3035 -0.1876 0.9342
vn 0.5346 -0.3304 0.7779
vn 0.9921 0.1256 0.0000
vn 0.9822 -0.1876 -0.0000
vn 0.9050 -0.3304 -0.2680
vn 0.4713 -0.6617 -0.5831
vn 0.1876 -0.7947 -0.5773
vn -0.0385 -0.6617 -0.7488
vn -0.4089 -0.6617 -0.6284
vn -0.4911 -0.7947 -0.3568
vn -0.7240 -0.6617 -0.1947
vn -0.7240 -0.6617 0.1947
vn -0.4911 -0.7947 0.3568
vn -0.4089 -0.6617 0.6284
vn 0.7002 -0.6617 -0.2680
vn 0.6071 -0.7947 0.0000
vn 0.3313 -0.9435 -0.0000
vn -0.0385 -0.6617 0.7488
vn 0.1876 -0.7947 0.5773
vn 0.4713 -0.6617 0.5831
usemtl None.005
s 1
f 1/1/1 2/2/1 3/3/1
f 4/4/2 2/5/2 5/6/2
f 1/7/3 3/3/3 6/8/3
f 1/9/4 6/8/4 7/10/4
f 1/9/5 7/10/5 8/11/5
f 4/4/6 5/6/6 9/12/6
f 10/13/7 11/14/7 12/15/7
f 13/16/8 14/17/8 15/18/8
f 16/19/9 17/20/9 18/21/9
f 19/22/10 20/23/10 21/24/10
f 4/4/11 9/12/11 22/25/11
f 10/13/12 12/15/12 23/26/12
f 13/16/13 15/18/13 24/27/13
f 16/19/14 18/21/14 25/28/14
f 19/29/15 21/24/15 26/30/15
f 27/31/16 28/32/16 29/33/16
f 30/34/17 31/35/17 32/36/17
f 33/37/18 34/38/18 35/39/18
f 36/40/19 37/41/19 38/42/19
f 39/43/20 40/44/20 41/45/20
f 41/45/21 38/42/21 42/46/21
f 41/45/22 40/44/22 38/42/22
f 40/44/23 36/40/23 38/42/23
f 38/42/24 35/47/24 42/48/24
f 38/42/25 37/41/25 35/47/25
f 37/49/26 33/37/26 35/39/26
f 35/47/27 32/50/27 42/48/27
f 35/39/28 34/38/28 32/51/28
f 34/52/29 30/53/29 32/54/29
f 32/55/30 29/56/30 42/57/30
f 32/58/31 31/59/31 29/33/31
f 31/59/32 27/31/32 29/33/32
f 29/56/33 41/45/33 42/57/33
f 29/56/34 28/32/34 41/45/34
f 28/32/35 39/43/35 41/45/35
f 26/30/36 40/44/36 39/43/36
f 26/30/37 21/24/37 40/44/37
f 21/24/38 36/40/38 40/44/38
f 25/60/39 37/41/39 36/40/39
f 25/28/40 18/21/40 37/49/40
f 18/21/41 33/37/41 37/49/41
f 24/27/42 34/38/42 33/37/42
f 24/27/43 15/18/43 34/52/43
f 15/18/44 30/53/44 34/52/44
f 23/26/45 31/35/45 30/34/45
f 23/26/46 12/15/46 31/35/46
f 12/15/47 27/31/47 31/59/47
f 22/25/48 28/32/48 27/31/48
f 22/25/49 9/12/49 28/32/49
f 9/12/50 39/43/50 28/32/50
f 21/24/51 25/60/51 36/40/51
f 21/24/52 20/23/52 25/60/52
f 20/61/53 16/19/53 25/28/53
f 18/21/54 24/27/54 33/37/54
f 18/21/55 17/20/55 24/27/55
f 17/20/56 13/16/56 24/27/56
f 15/18/57 23/26/57 30/62/57
f 15/18/58 14/17/58 23/26/58
f 14/17/59 10/13/59 23/26/59
f 12/15/60 22/25/60 27/31/60
f 12/15/61 11/14/61 22/25/61
f 11/14/62 4/4/62 22/25/62
f 9/12/63 26/30/63 39/43/63
f 9/12/64 5/63/64 26/30/64
f 5/63/65 19/64/65 26/30/65
f 8/65/66 20/23/66 19/22/66
f 8/66/67 7/67/67 20/61/67
f 7/67/68 16/19/68 20/61/68
f 7/67/69 17/20/69 16/19/69
f 7/10/70 6/8/70 17/20/70
f 6/8/71 13/16/71 17/20/71
f 6/8/72 14/17/72 13/16/72
f 6/8/73 3/3/73 14/17/73
f 3/3/74 10/13/74 14/17/74
f 5/63/75 8/68/75 19/64/75
f 5/6/76 2/5/76 8/69/76
f 2/2/77 1/1/77 8/70/77
f 3/3/78 11/14/78 10/13/78
f 3/3/79 2/2/79 11/14/79
f 2/5/80 4/4/80 11/14/80
